<?xml version="1.0" encoding="UTF-8" standalone="no"?>
<!DOCTYPE svg PUBLIC "-//W3C//DTD SVG 1.1//EN"
"http://www.w3.org/Graphics/SVG/1.1/DTD/svg11.dtd">


<!-- Page 1 -->
<svg x="0" y="0" width="826" height="469" viewBox="0 0 826 469" version="1.1" xmlns="http://www.w3.org/2000/svg" xmlns:xlink="http://www.w3.org/1999/xlink"
style="display: block;margin-left: auto;margin-right: auto;">
<defs>
<clipPath id="c_1"><path d="M0,0H826V469H0Z" /></clipPath>
<style type="text/css"><![CDATA[

.g0_1{
}
.g1_1{
fill: #FF0000;
}

]]></style>

</defs>
<g clip-path="url(#c_1)">
<path d="M0,0
L0,469
L826,469
L826,0 Z " 
fill="#FFFFFF" stroke="none" />
<path d="M9.7,208.7L20.9,189c1.9,-3.1,6.4,-2.6,8.1,-1.4c1,.5,18.1,13.1,33.8,13.1c9.5,0,16.4,-6,16.4,-14.3c0,-10,-8.3,-17.6,-24.5,-24C34.2,154.3,8.6,138.3,8.6,109.8C8.6,86.3,26.9,62.5,63.5,62.5c24.7,0,43.8,12.6,50.9,17.8c2.8,1.7,2.4,6,1.4,7.6l-12.1,18.3c-1.7,2.7,-6,4.8,-8.1,3.1C93.5,108.1,76.1,95.1,61.6,95.1c-8.6,0,-15,5.7,-15,12.1c0,8.8,7.1,15.5,25.9,23.1c18.6,7.3,48.1,21.8,48.1,54.2c0,24.5,-21.2,49.2,-56.2,49.2c-30.9,0,-48,-12.8,-53.5,-18.3C8.6,213,7.8,212.1,9.7,208.7Z" class="g0_1" />
<path d="M194,69.4c0,-2.4,2.1,-4.5,4.5,-4.5h28.3c2.6,0,4.5,2.1,4.5,4.5v59.9h68.1V69.4c0,-2.4,1.9,-4.5,4.5,-4.5h28.3c2.3,0,4.5,2.1,4.5,4.5V226.8c0,2.4,-2.2,4.5,-4.5,4.5H303.9c-2.6,0,-4.5,-2.1,-4.5,-4.5V164.3H231.3v62.5c0,2.4,-1.9,4.5,-4.5,4.5H198.5c-2.4,0,-4.5,-2.1,-4.5,-4.5Z" class="g0_1" />
<path fill-rule="evenodd" d="M438.5,148.3c0,-26.1,21.5,-47.8,47.4,-47.8c26.1,0,47.5,21.7,47.5,47.8c0,26,-21.4,47.4,-47.5,47.4c-25.9,0,-47.4,-21.4,-47.4,-47.4Zm-38,0c0,47.6,37.8,85.4,85.4,85.4c47.5,0,85.6,-37.8,85.6,-85.4c0,-47.5,-38.1,-85.8,-85.6,-85.8c-47.6,0,-85.4,38.3,-85.4,85.8ZM634.4,.2c2.9,0,5.3,2.4,5.3,5.4V61.3c0,3,-2.4,5.3,-5.3,5.3H583.7c-3,0,-5.3,2.4,-5.3,5.4V265.8c0,3,-2.4,5.4,-5.4,5.4H398.8c-3,0,-5.4,-2.4,-5.4,-5.4V72c0,-3,-2.4,-5.4,-5.3,-5.4H341.2c-2.9,0,-5.3,-2.3,-5.3,-5.3V7.5c0,-4,3.2,-7.3,7.2,-7.3h95.1c1.8,0,3.5,1,4.5,2.6c9.2,15.2,25.7,25.5,44.8,25.5c19.1,0,35.6,-10.3,44.8,-25.5c1,-1.6,2.7,-2.6,4.5,-2.6Z" class="g1_1" />
<path d="M623.7,70.6c-1,-3.4,.9,-5.7,4.3,-5.7h27.8c1.9,0,3.8,1.6,4.3,3.3l20.4,80.6h1L718.3,65.1c.8,-1.4,2.2,-2.6,4.1,-2.6h4.3c2.1,0,3.5,1.2,4,2.6l36.9,83.7h.9L789,68.2c.5,-1.7,2.3,-3.3,4.2,-3.3h27.9c3.3,0,5.2,2.3,4.3,5.7l-45,159.8c-.5,1.9,-2.4,3.3,-4.3,3.3h-3.8c-1.6,0,-3.3,-1.2,-4,-2.6L724.8,133.8H724l-43.2,97.3c-.8,1.4,-2.4,2.6,-4.1,2.6h-3.8c-1.9,0,-3.8,-1.4,-4.3,-3.3Z" class="g0_1" />
<path d="M164.8,429.6c26.1,0,47.5,-21.4,47.5,-47.3c0,-26.1,-21.4,-47.8,-47.5,-47.8c-26,0,-47.4,21.7,-47.4,47.8c0,25.9,21.4,47.3,47.4,47.3Zm0,-133.1c47.5,0,85.6,38.3,85.6,85.8c0,47.6,-38.1,85.4,-85.6,85.4c-47.6,0,-85.4,-37.8,-85.4,-85.4c0,-47.5,37.8,-85.8,85.4,-85.8Z" class="g0_1" />
<path d="M301,303.4c0,-2.4,1.9,-4.6,4.5,-4.6H404c2.6,0,4.5,2.2,4.5,4.6v25.9c0,2.4,-1.9,4.5,-4.5,4.5H338.1v34.3h54.2c2.4,0,4.6,2.1,4.6,4.5v25.9c0,2.4,-2.2,4.5,-4.6,4.5H338.1v57.8c0,2.4,-2.1,4.5,-4.5,4.5H305.5c-2.6,0,-4.5,-2.1,-4.5,-4.5Z" class="g0_1" />
<path d="M482.3,303.4c0,-2.4,1.9,-4.6,4.5,-4.6h98.5c2.6,0,4.5,2.2,4.5,4.6v25.9c0,2.4,-1.9,4.5,-4.5,4.5H519.4v34.3h54.2c2.4,0,4.6,2.1,4.6,4.5v25.9c0,2.4,-2.2,4.5,-4.6,4.5H519.4v57.8c0,2.4,-2.1,4.5,-4.5,4.5H486.8c-2.6,0,-4.5,-2.1,-4.5,-4.5Z" class="g0_1" />
<path d="M649,442.7L660.2,423c1.9,-3.1,6.4,-2.6,8.1,-1.4c.9,.4,18.1,13,33.8,13c9.5,0,16.4,-5.9,16.4,-14.2c0,-10,-8.4,-17.6,-24.5,-24c-20.5,-8.1,-46.2,-24.1,-46.2,-52.6c0,-23.5,18.4,-47.3,55,-47.3c24.7,0,43.7,12.6,50.9,17.8c2.8,1.7,2.4,6,1.4,7.6L743,340.2c-1.7,2.6,-6,4.8,-8.1,3.1C732.7,342.1,715.4,329,700.9,329c-8.6,0,-15,5.8,-15,12.2c0,8.8,7.1,15.4,25.9,23c18.6,7.4,48.1,21.9,48.1,54.3c0,24.5,-21.2,49.2,-56.2,49.2c-30.9,0,-48,-12.8,-53.5,-18.3C647.8,447,647.1,446,649,442.7Z" class="g0_1" />
<path fill-rule="evenodd" d="M250.4,381.3c0,-48.6,-39.4,-88,-88,-88c-36.6,0,-67.8,22.5,-81,54.3c-.8,1.9,-2.4,3.2,-4.3,3.7L3.9,367.7l-2.5,1.8L.9,372v6l.7,2.5l2.5,1.1H247.5l-.3,-.3Z" class="g1_1" />

</g>
</svg>
